Coordinates
version=1
nRows=18
nColumns=38
inDegrees=yes

Units are S.I. units (second, meters, Newtons, ...)
Angles are in degrees.

endheader
time	pelvis_tilt	pelvis_list	pelvis_rotation	pelvis_tx	pelvis_ty	pelvis_tz	hip_flexion_r	hip_adduction_r	hip_rotation_r	knee_angle_r	ankle_angle_r	subtalar_angle_r	mtp_angle_r	hip_flexion_l	hip_adduction_l	hip_rotation_l	knee_angle_l	ankle_angle_l	subtalar_angle_l	mtp_angle_l	lumbar_extension	lumbar_bending	lumbar_rotation	arm_flex_r	arm_add_r	arm_rot_r	elbow_flex_r	pro_sup_r	wrist_flex_r	wrist_dev_r	arm_flex_l	arm_add_l	arm_rot_l	elbow_flex_l	pro_sup_l	wrist_flex_l	wrist_dev_l
      1.35000000	     -2.01564636	      5.51230822	      4.48815881	     -0.24596637	      0.90578539	      0.23778881	     12.64208586	     -4.07891646	     -1.08084403	    -65.39595476	    -11.81698576	    -13.16671544	     21.96995850	     18.28139700	     10.83080913	      2.02744794	    -27.39451118	      6.87487106	      3.48543673	      3.27111873	     -4.43001209	     -5.24291470	     -1.73112945	     -2.03348345	    -18.54530144	     12.46184537	     25.14863507	     86.51662706	      0.00000000	      0.00000000	     -0.42898244	    -14.80142844	     22.91408146	     18.96342703	     86.51662706	      0.00000000	      0.00000000
      1.36000000	     -2.02930610	      5.25263394	      4.20617685	     -0.23373226	      0.90762209	      0.23780731	     14.60503943	     -3.81753839	     -0.86133196	    -65.92867493	    -10.70818277	    -12.56278763	     21.62149379	     17.12238197	     10.42842556	      1.97248904	    -26.82672421	      7.49035289	      3.85576160	      3.17426460	     -4.41888871	     -4.92206045	     -2.05682087	     -2.10789688	    -18.38252335	     13.08591935	     23.96017641	     86.51662706	      0.00000000	      0.00000000	     -0.19922847	    -14.85064920	     22.99431468	     19.52214066	     86.51662706	      0.00000000	      0.00000000
      1.37000000	     -2.03866173	      4.98018074	      3.98874208	     -0.22145768	      0.90944094	      0.23776518	     16.46496102	     -3.56123035	     -0.74139943	    -66.10089681	     -9.61037332	    -11.71900749	     21.35840126	     15.91921715	     10.07607867	      2.15681455	    -26.19359286	      8.04482304	      4.00959989	      3.05604615	     -4.40202462	     -4.58328334	     -2.42946949	     -2.28181263	    -18.22153325	     13.54327648	     22.90814375	     86.51662706	      0.00000000	      0.00000000	      0.03851140	    -14.91644108	     23.14007313	     20.08880089	     86.51662706	      0.00000000	      0.00000000
      1.38000000	     -2.04015706	      4.69887665	      3.83810986	     -0.20915156	      0.91120452	      0.23766273	     18.21089505	     -3.32980103	     -0.73551737	    -65.92578382	     -8.54148586	    -10.76721666	     21.15485413	     14.67806385	      9.76976689	      2.53965226	    -25.50663324	      8.54377825	      3.96190621	      2.93023495	     -4.38588281	     -4.23255930	     -2.84839483	     -2.54524224	    -18.06647049	     13.82249273	     21.99198570	     86.51662706	      0.00000000	      0.00000000	      0.28755708	    -15.00192528	     23.34068952	     20.67222483	     86.51662706	      0.00000000	      0.00000000
      1.39000000	     -2.03174598	      4.41354021	      3.75166954	     -0.19682163	      0.91287180	      0.23749065	     19.83456860	     -3.13745886	     -0.85060577	    -65.41462046	     -7.52408531	     -9.83595297	     20.98174988	     13.40437854	      9.49954627	      3.06480196	    -24.77593988	      8.99225143	      3.74583529	      2.81010871	     -4.37694348	     -3.87489469	     -3.31092659	     -2.88103173	    -17.92184369	     13.92497143	     21.20150977	     86.51662706	      0.00000000	      0.00000000	      0.55096833	    -15.10968565	     23.58456214	     21.27808402	     86.51662706	      0.00000000	      0.00000000
      1.40000000	     -2.01223071	      4.13048507	      3.72295223	     -0.18447311	      0.91440656	      0.23724740	     21.32975251	     -2.99183582	     -1.08314604	    -64.57644778	     -6.58360904	     -9.03597793	     20.81020618	     12.10094233	      9.25303782	      3.67131009	    -24.00834125	      9.39586329	      3.40785929	      2.70690344	     -4.38142599	     -3.51592872	     -3.81204703	     -3.26888571	    -17.79074069	     13.86336617	     20.51902676	     86.51662706	      0.00000000	      0.00000000	      0.83103468	    -15.24186277	     23.86005265	     21.90807726	     86.51662706	      0.00000000	      0.00000000
      1.41000000	     -1.98027957	      3.85696088	      3.74282303	     -0.17211810	      0.91577641	      0.23694922	     22.69174978	     -2.89410711	     -1.41919182	    -63.41888710	     -5.74394066	     -8.44928246	     20.61460199	     10.76689127	      9.01839194	      4.30319287	    -23.20675338	      9.76133701	      3.00131710	      2.62895168	     -4.40491553	     -3.16260004	     -4.34434365	     -3.68891931	    -17.67351784	     13.65909442	     19.92215121	     86.51662706	      0.00000000	      0.00000000	      1.12896493	    -15.40013774	     24.15607022	     22.55971673	     86.51662706	      0.00000000	      0.00000000
      1.42000000	     -1.93348604	      3.60008250	      3.80062988	     -0.15977274	      0.91694731	      0.23661893	     23.91689080	     -2.84014940	     -1.83698746	    -61.94975229	     -5.02234246	     -8.12195893	     20.37490911	      9.39847851	      8.78619974	      4.91641947	    -22.37105288	     10.09631440	      2.57960819	      2.58146289	     -4.45182465	     -2.82306971	     -4.89849652	     -4.12418141	    -17.56740654	     13.33935699	     19.38672527	     86.51662706	      0.00000000	      0.00000000	      1.44485158	    -15.58549043	     24.46230582	     23.22668496	     86.51662706	      0.00000000	      0.00000000
      1.43000000	     -1.86864397	      3.36581402	      3.88569393	     -0.14743992	      0.91789362	      0.23627781	     25.00224817	     -2.82248497	     -2.31094001	    -60.17859861	     -4.42549189	     -8.06100918	     20.07812577	      7.99088834	      8.55051880	      5.48206261	    -21.50024288	     10.40853056	      2.19027851	      2.56679040	     -4.52492375	     -2.50614847	     -5.46437739	     -4.56188443	    -17.46706400	     12.93407430	     18.88943079	     86.51662706	      0.00000000	      0.00000000	      1.77789150	    -15.79778452	     24.76917639	     23.89964624	     86.51662706	      0.00000000	      0.00000000
      1.44000000	     -1.78361231	      3.15859824	      3.98917861	     -0.13510454	      0.91861038	      0.23595192	     25.94558639	     -2.83257539	     -2.81567899	    -58.11736253	     -3.94762404	     -8.23502777	     19.71873429	      6.54034810	      8.30928914	      5.98561673	    -20.59516148	     10.70458920	      1.87097577	      2.58496808	     -4.62516018	     -2.22033854	     -6.03248883	     -4.99338940	    -17.36576037	     12.47309685	     18.40979082	     86.51662706	      0.00000000	      0.00000000	      2.12674591	    -16.03536282	     25.06761680	     24.56733746	     86.51662706	      0.00000000	      0.00000000
      1.45000000	     -1.67883016	      2.98170321	      4.10550466	     -0.12274215	      0.91910629	      0.23567419	     26.74555850	     -2.86289200	     -3.32950616	    -55.77980253	     -3.57098393	     -8.57854305	     19.29825581	      5.04694298	      8.06410713	      6.42365380	    -19.66057875	     10.98873207	      1.64770892	      2.63430458	     -4.75181464	     -1.97285179	     -6.59529494	     -5.41334161	    -17.25676265	     11.98395889	     17.93140398	     86.51662706	      0.00000000	      0.00000000	      2.48988141	    -16.29479460	     25.34889229	     25.21773594	     86.51662706	      0.00000000	      0.00000000
      1.46000000	     -1.55695108	      2.83775827	      4.23261830	     -0.11032375	      0.91938778	      0.23547365	     27.40244969	     -2.90827030	     -3.83683514	    -53.18025272	     -3.26825504	     -8.99957653	     18.82408932	      3.51758464	      7.81923896	      6.79941574	    -18.70599341	     11.26203764	      1.53520417	      2.71188276	     -4.90286678	     -1.76894003	     -7.14803556	     -5.81851776	    -17.13451435	     11.49033028	     17.44241028	     86.51662706	      0.00000000	      0.00000000	      2.86572734	    -16.57081202	     25.60458993	     25.83912845	     86.51662706	      0.00000000	      0.00000000
      1.47000000	     -1.42149026	      2.72881640	      4.37119098	     -0.09782437	      0.91945549	      0.23535880	     27.91945990	     -2.96653629	     -4.32935803	    -50.33284900	     -3.00643132	     -9.38978478	     18.30784577	      1.96690452	      7.57990452	      7.11869514	    -17.74534092	     11.52236928	      1.53864074	      2.81389333	     -5.07524687	     -1.61149654	     -7.68875362	     -6.20684174	    -16.99534724	     11.01119671	     16.93531447	     86.51662706	      0.00000000	      0.00000000	      3.25258750	    -16.85648055	     25.82687291	     26.42096301	     86.51662706	      0.00000000	      0.00000000
      1.48000000	     -1.27641577	      2.65566008	      4.52328914	     -0.08524398	      0.91931556	      0.23531078	     28.30371001	     -3.03852810	     -4.80604191	    -47.25265585	     -2.75161309	     -9.63639183	     17.76336703	      0.41450264	      7.35029295	      7.38691487	    -16.79608282	     11.76513974	      1.65583936	      2.93581022	     -5.26475542	     -1.50080957	     -8.21751470	     -6.57680078	    -16.83767257	     10.56069492	     16.40635787	     86.51662706	      0.00000000	      0.00000000	      3.64840313	    -17.14365502	     26.00896792	     26.95442321	     86.51662706	      0.00000000	      0.00000000
      1.49000000	     -1.12675034	      2.61685694	      4.69101233	     -0.07261044	      0.91898429	      0.23530222	     28.56608619	     -3.12727970	     -5.27246523	    -43.95938835	     -2.47415965	     -9.63493743	     17.20465279	     -1.12000032	      7.13217839	      7.60779164	    -15.87762498	     11.98467990	      1.87910074	      3.07249520	     -5.46578789	     -1.43446541	     -8.73501450	     -6.92725060	    -16.66179873	     10.14847053	     15.85466218	     86.51662706	      0.00000000	      0.00000000	      4.05048167	    -17.42372262	     26.14575577	     27.43272887	     86.51662706	      0.00000000	      0.00000000
      1.50000000	     -0.97856731	      2.60861609	      4.87520296	     -0.05994592	      0.91848196	      0.23532458	     28.71999084	     -3.23598878	     -5.74003816	    -40.48286401	     -2.15340589	     -9.30164360	     16.64400983	     -2.62079896	      6.92473983	      7.78348178	    -15.00886429	     12.17580313	      2.19627150	      3.21838549	     -5.67132332	     -1.40750559	     -9.24094309	     -7.25741360	    -16.46958523	      9.78040786	     15.28137567	     86.51662706	      0.00000000	      0.00000000	      4.45534135	    -17.68852008	     26.23426648	     27.85124710	     86.51662706	      0.00000000	      0.00000000
      1.51000000	     -0.83775653	      2.62576102	      5.07419523	     -0.04723727	      0.91782879	      0.23538757	     28.78011336	     -3.36514545	     -6.22509811	    -36.86815783	     -1.78094308	     -8.58401881	     16.09079397	     -4.07707054	      6.72543661	      7.91575234	    -14.20557938	     12.33505837	      2.59109537	      3.36791667	     -5.87360802	     -1.41299946	     -9.73260448	     -7.56684336	    -16.26405205	      9.45958699	     14.68899959	     86.51662706	      0.00000000	      0.00000000	      4.85886758	    -17.93117496	     26.27387540	     28.20754642	     86.51662706	      0.00000000	      0.00000000
      1.52000000	     -0.70838196	      2.66287913	      5.28298046	     -0.03444647	      0.91703722	      0.23549579	     28.76249537	     -3.51020016	     -6.74714026	    -33.17847019	     -1.36145459	     -7.46832880	     15.55107304	     -5.48248309	      6.53119722	      8.00752240	    -13.47912040	     12.46120833	      3.04329861	      3.51626774	     -6.06557967	     -1.44296939	    -10.20430467	     -7.85521356	    -16.04896163	      9.18732469	     14.08098137	     86.51662706	      0.00000000	      0.00000000	      5.25682779	    -18.14662054	     26.26608625	     28.50148222	     86.51662706	      0.00000000	      0.00000000
